<?xml version="1.0" standalone="no"?><svg xmlns="http://www.w3.org/2000/svg" viewBox="0 0 1440 320"><path fill="#ffffff" fill-opacity="1" d="M0,224L18.5,240C36.9,256,74,288,111,277.3C147.7,267,185,213,222,202.7C258.5,192,295,224,332,240C369.2,256,406,256,443,229.3C480,203,517,149,554,149.3C590.8,149,628,203,665,186.7C701.5,171,738,85,775,90.7C812.3,96,849,192,886,234.7C923.1,277,960,267,997,250.7C1033.8,235,1071,213,1108,181.3C1144.6,149,1182,107,1218,96C1255.4,85,1292,107,1329,117.3C1366.2,128,1403,128,1422,128L1440,128L1440,320L1421.5,320C1403.1,320,1366,320,1329,320C1292.3,320,1255,320,1218,320C1181.5,320,1145,320,1108,320C1070.8,320,1034,320,997,320C960,320,923,320,886,320C849.2,320,812,320,775,320C738.5,320,702,320,665,320C627.7,320,591,320,554,320C516.9,320,480,320,443,320C406.2,320,369,320,332,320C295.4,320,258,320,222,320C184.6,320,148,320,111,320C73.8,320,37,320,18,320L0,320Z"></path></svg>